# xmcd CD database file
#
# Track frame offsets:
#	150
#	18575
#	51012
#	74167
#	86505
#	112351
#	133174
#	155402
#	167184
#	181588
#
# Disc length: 2692 seconds
#
# Revision: 0
# Processed by: cddbd v1.5.2PL0 Copyright (c) Steve Scherf et al.
# Submitted via: CDex 1.70beta3
#
DISCID=8d0a820a
DTITLE=Sawai Genji - TOKYO解放区
DYEAR=2016
DGENRE=Jazz
TTITLE0=HAYATE （颯）
TTITLE1=KASUMI （霞）
TTITLE2=SOW （爽）
TTITLE3=JAKU （寂）
TTITLE4=KI （気）
TTITLE5=JIN （迅）
TTITLE6=MOYA （靄）
TTITLE7=AKANE （茜）
TTITLE8=NAGI （凪）
TTITLE9=OROSHI （颪）
EXTD=YEAR: 2016
EXTT0=
EXTT1=
EXTT2=
EXTT3=
EXTT4=
EXTT5=
EXTT6=
EXTT7=
EXTT8=
EXTT9=
PLAYORDER=
